{
	"asset":{
		"generator":"Khronos glTF Blender I/O v4.2.70",
		"version":"2.0"
	},
	"extensionsUsed":[
		"KHR_texture_transform"
	],
	"extensionsRequired":[
		"KHR_texture_transform"
	],
	"scene":1,
	"scenes":[
		{
			"name":"Scene",
			"nodes":[
				0,
				1,
				2,
				3,
				4,
				5,
				6,
				7,
				8,
				9,
				10,
				11,
				12,
				13
			]
		},
		{
			"name":"Scene.001",
			"nodes":[
				14,
				15,
				16,
				17,
				18,
				19,
				20,
				21,
				22
			]
		}
	],
	"nodes":[
		{
			"name":"Scene Collection"
		},
		{
			"name":"entrance"
		},
		{
			"mesh":0,
			"name":"NEW DOOR. wall",
			"translation":[
				10.336557388305664,
				0,
				3.3046419620513916
			]
		},
		{
			"mesh":1,
			"name":"NEW DOOR. wall.001",
			"translation":[
				-10.158965110778809,
				0,
				2.2925119400024414
			]
		},
		{
			"mesh":2,
			"name":"door part left",
			"translation":[
				10.358834266662598,
				3.1578001976013184,
				1.6109331846237183
			]
		},
		{
			"mesh":3,
			"name":"door part right",
			"translation":[
				10.379766464233398,
				3.1578001976013184,
				4.347724437713623
			]
		},
		{
			"mesh":4,
			"name":"door part left.001",
			"translation":[
				-9.907443046569824,
				3.1578001976013184,
				0.5388233661651611
			]
		},
		{
			"mesh":5,
			"name":"door part right.001",
			"translation":[
				-9.907443046569824,
				3.1578001976013184,
				3.2602460384368896
			]
		},
		{
			"mesh":6,
			"name":"door upper part",
			"translation":[
				8.84400749206543,
				7.964270114898682,
				3.00347638130188
			]
		},
		{
			"mesh":7,
			"name":"door upper part 2",
			"translation":[
				-8.888568878173828,
				7.881049633026123,
				1.9536471366882324
			]
		},
		{
			"mesh":8,
			"name":"Wall.Bar.Back.",
			"translation":[
				10.26653003692627,
				4.413367748260498,
				-6.2938032150268555
			]
		},
		{
			"mesh":9,
			"name":"NEW DOOR. wall.002",
			"translation":[
				-10.158965110778809,
				0,
				2.2925119400024414
			]
		},
		{
			"mesh":10,
			"name":"NEW DOOR. wall.003",
			"translation":[
				10.336557388305664,
				0,
				3.3046419620513916
			]
		},
		{
			"mesh":11,
			"name":"Wall.Bar.Back.U002",
			"translation":[
				10.26653003692627,
				4.413367748260498,
				-6.2938032150268555
			]
		},
		{
			"name":"Scene Collection"
		},
		{
			"camera":0,
			"name":"Camera",
			"rotation":[
				-0.009030207991600037,
				0.8423410654067993,
				0.014121578074991703,
				0.5386841297149658
			],
			"translation":[
				-1.1999988555908203,
				3.1599998474121094,
				-1.0099999904632568
			]
		},
		{
			"name":"2 floor"
		},
		{
			"name":"1 floor"
		},
		{
			"name":"entrance"
		},
		{
			"name":"Collection room"
		},
		{
			"mesh":12,
			"name":"walls"
		},
		{
			"mesh":13,
			"name":"Floor room"
		},
		{
			"name":"pickable obj"
		}
	],
	"cameras":[
		{
			"name":"Camera",
			"perspective":{
				"aspectRatio":1.7777777777777777,
				"yfov":0.39959652046304894,
				"zfar":1000,
				"znear":0.10000000149011612
			},
			"type":"perspective"
		}
	],
	"materials":[
		{
			"doubleSided":true,
			"name":"plaster white"
		},
		{
			"doubleSided":true,
			"name":"Glossy Metal"
		},
		{
			"doubleSided":true,
			"name":"Door metal",
			"pbrMetallicRoughness":{
				"metallicRoughnessTexture":{
					"extensions":{
						"KHR_texture_transform":{
							"offset":[
								0,
								-4
							],
							"scale":[
								5,
								5
							]
						}
					},
					"index":0
				},
				"roughnessFactor":0.5
			}
		},
		{
			"doubleSided":true,
			"name":"tile floor 512"
		}
	],
	"meshes":[
		{
			"name":"Cube.122",
			"primitives":[
				{
					"attributes":{
						"POSITION":0,
						"NORMAL":1,
						"TEXCOORD_0":2,
						"TANGENT":3
					},
					"indices":4,
					"material":0
				}
			]
		},
		{
			"name":"Cube.123",
			"primitives":[
				{
					"attributes":{
						"POSITION":5,
						"NORMAL":6,
						"TEXCOORD_0":7,
						"TANGENT":8
					},
					"indices":9
				}
			]
		},
		{
			"name":"Cube.124",
			"primitives":[
				{
					"attributes":{
						"POSITION":10,
						"NORMAL":11,
						"TEXCOORD_0":12
					},
					"indices":13,
					"material":1
				}
			]
		},
		{
			"name":"Cube.125",
			"primitives":[
				{
					"attributes":{
						"POSITION":14,
						"NORMAL":15,
						"TEXCOORD_0":16
					},
					"indices":17,
					"material":1
				}
			]
		},
		{
			"name":"Cube.126",
			"primitives":[
				{
					"attributes":{
						"POSITION":18,
						"NORMAL":19,
						"TEXCOORD_0":20
					},
					"indices":17,
					"material":1
				}
			]
		},
		{
			"name":"Cube.127",
			"primitives":[
				{
					"attributes":{
						"POSITION":21,
						"NORMAL":22,
						"TEXCOORD_0":23
					},
					"indices":17,
					"material":1
				}
			]
		},
		{
			"name":"Cube.132",
			"primitives":[
				{
					"attributes":{
						"POSITION":24,
						"NORMAL":25,
						"TEXCOORD_0":26,
						"TANGENT":27
					},
					"indices":28,
					"material":0
				}
			]
		},
		{
			"name":"Cube.133",
			"primitives":[
				{
					"attributes":{
						"POSITION":29,
						"NORMAL":30,
						"TEXCOORD_0":31,
						"TANGENT":32
					},
					"indices":28,
					"material":0
				}
			]
		},
		{
			"name":"Cube.059",
			"primitives":[
				{
					"attributes":{
						"POSITION":33,
						"NORMAL":34,
						"TEXCOORD_0":35,
						"TANGENT":36
					},
					"indices":37,
					"material":1
				}
			]
		},
		{
			"name":"Cube.163",
			"primitives":[
				{
					"attributes":{
						"POSITION":38,
						"NORMAL":39,
						"TEXCOORD_0":40,
						"TANGENT":41
					},
					"indices":42,
					"material":2
				}
			]
		},
		{
			"name":"Cube.164",
			"primitives":[
				{
					"attributes":{
						"POSITION":43,
						"NORMAL":44,
						"TEXCOORD_0":45,
						"TANGENT":46
					},
					"indices":47,
					"material":2
				}
			]
		},
		{
			"name":"Cube.189",
			"primitives":[
				{
					"attributes":{
						"POSITION":48,
						"NORMAL":49,
						"TEXCOORD_0":50,
						"TANGENT":51
					},
					"indices":52,
					"material":0
				}
			]
		},
		{
			"name":"Cube.066",
			"primitives":[
				{
					"attributes":{
						"POSITION":53,
						"NORMAL":54,
						"TEXCOORD_0":55
					},
					"indices":56,
					"material":0
				}
			]
		},
		{
			"name":"Plane.007",
			"primitives":[
				{
					"attributes":{
						"POSITION":57,
						"NORMAL":58,
						"TEXCOORD_0":59,
						"TANGENT":60
					},
					"indices":61,
					"material":3
				}
			]
		}
	],
	"textures":[
		{
			"sampler":0,
			"source":0
		}
	],
	"images":[
		{
			"mimeType":"image/png",
			"name":"Image",
			"uri":"Image.png"
		}
	],
	"accessors":[
		{
			"bufferView":0,
			"componentType":5126,
			"count":8,
			"max":[
				0,
				7.732415676116943,
				3.1729869842529297
			],
			"min":[
				0,
				-0.010006226599216461,
				-3.6733694076538086
			],
			"type":"VEC3"
		},
		{
			"bufferView":1,
			"componentType":5126,
			"count":8,
			"type":"VEC3"
		},
		{
			"bufferView":2,
			"componentType":5126,
			"count":8,
			"type":"VEC2"
		},
		{
			"bufferView":3,
			"componentType":5126,
			"count":8,
			"type":"VEC4"
		},
		{
			"bufferView":4,
			"componentType":5123,
			"count":18,
			"type":"SCALAR"
		},
		{
			"bufferView":5,
			"componentType":5126,
			"count":8,
			"max":[
				0,
				7.732415676116943,
				3.1729869842529297
			],
			"min":[
				0,
				-0.010006226599216461,
				-3.6733694076538086
			],
			"type":"VEC3"
		},
		{
			"bufferView":6,
			"componentType":5126,
			"count":8,
			"type":"VEC3"
		},
		{
			"bufferView":7,
			"componentType":5126,
			"count":8,
			"type":"VEC2"
		},
		{
			"bufferView":8,
			"componentType":5126,
			"count":8,
			"type":"VEC4"
		},
		{
			"bufferView":9,
			"componentType":5123,
			"count":18,
			"type":"SCALAR"
		},
		{
			"bufferView":10,
			"componentType":5126,
			"count":186,
			"max":[
				0.15087100863456726,
				3.1405155658721924,
				1.3586345911026
			],
			"min":[
				-0.15386174619197845,
				-3.1405155658721924,
				-1.3586345911026
			],
			"type":"VEC3"
		},
		{
			"bufferView":11,
			"componentType":5126,
			"count":186,
			"type":"VEC3"
		},
		{
			"bufferView":12,
			"componentType":5126,
			"count":186,
			"type":"VEC2"
		},
		{
			"bufferView":13,
			"componentType":5123,
			"count":396,
			"type":"SCALAR"
		},
		{
			"bufferView":14,
			"componentType":5126,
			"count":186,
			"max":[
				0.15087100863456726,
				3.1405155658721924,
				1.3586345911026
			],
			"min":[
				-0.15386174619197845,
				-3.1405155658721924,
				-1.3586345911026
			],
			"type":"VEC3"
		},
		{
			"bufferView":15,
			"componentType":5126,
			"count":186,
			"type":"VEC3"
		},
		{
			"bufferView":16,
			"componentType":5126,
			"count":186,
			"type":"VEC2"
		},
		{
			"bufferView":17,
			"componentType":5123,
			"count":396,
			"type":"SCALAR"
		},
		{
			"bufferView":18,
			"componentType":5126,
			"count":186,
			"max":[
				0.15087100863456726,
				3.1405155658721924,
				1.3586345911026
			],
			"min":[
				-0.15386174619197845,
				-3.1405155658721924,
				-1.3586345911026
			],
			"type":"VEC3"
		},
		{
			"bufferView":19,
			"componentType":5126,
			"count":186,
			"type":"VEC3"
		},
		{
			"bufferView":20,
			"componentType":5126,
			"count":186,
			"type":"VEC2"
		},
		{
			"bufferView":21,
			"componentType":5126,
			"count":186,
			"max":[
				0.15087100863456726,
				3.1405155658721924,
				1.3586345911026
			],
			"min":[
				-0.15386174619197845,
				-3.1405155658721924,
				-1.3586345911026
			],
			"type":"VEC3"
		},
		{
			"bufferView":22,
			"componentType":5126,
			"count":186,
			"type":"VEC3"
		},
		{
			"bufferView":23,
			"componentType":5126,
			"count":186,
			"type":"VEC2"
		},
		{
			"bufferView":24,
			"componentType":5126,
			"count":56,
			"max":[
				1.4968501329421997,
				0.48163267970085144,
				3.336360216140747
			],
			"min":[
				-1.3586475849151611,
				-0.3914722204208374,
				-3.336360216140747
			],
			"type":"VEC3"
		},
		{
			"bufferView":25,
			"componentType":5126,
			"count":56,
			"type":"VEC3"
		},
		{
			"bufferView":26,
			"componentType":5126,
			"count":56,
			"type":"VEC2"
		},
		{
			"bufferView":27,
			"componentType":5126,
			"count":56,
			"type":"VEC4"
		},
		{
			"bufferView":28,
			"componentType":5123,
			"count":84,
			"type":"SCALAR"
		},
		{
			"bufferView":29,
			"componentType":5126,
			"count":56,
			"max":[
				1.2621313333511353,
				0.4474182426929474,
				3.0993502140045166
			],
			"min":[
				-1.3905161619186401,
				-0.36366263031959534,
				-3.0993502140045166
			],
			"type":"VEC3"
		},
		{
			"bufferView":30,
			"componentType":5126,
			"count":56,
			"type":"VEC3"
		},
		{
			"bufferView":31,
			"componentType":5126,
			"count":56,
			"type":"VEC2"
		},
		{
			"bufferView":32,
			"componentType":5126,
			"count":56,
			"type":"VEC4"
		},
		{
			"bufferView":33,
			"componentType":5126,
			"count":352,
			"max":[
				0.06923042237758636,
				4.274412631988525,
				2.0950419902801514
			],
			"min":[
				-0.11756770312786102,
				-4.275537967681885,
				-2.0942487716674805
			],
			"type":"VEC3"
		},
		{
			"bufferView":34,
			"componentType":5126,
			"count":352,
			"type":"VEC3"
		},
		{
			"bufferView":35,
			"componentType":5126,
			"count":352,
			"type":"VEC2"
		},
		{
			"bufferView":36,
			"componentType":5126,
			"count":352,
			"type":"VEC4"
		},
		{
			"bufferView":37,
			"componentType":5123,
			"count":576,
			"type":"SCALAR"
		},
		{
			"bufferView":38,
			"componentType":5126,
			"count":564,
			"max":[
				0.6060597896575928,
				7.043550491333008,
				2.9476921558380127
			],
			"min":[
				-0.5961652398109436,
				0.0272330641746521,
				-3.511892795562744
			],
			"type":"VEC3"
		},
		{
			"bufferView":39,
			"componentType":5126,
			"count":564,
			"type":"VEC3"
		},
		{
			"bufferView":40,
			"componentType":5126,
			"count":564,
			"type":"VEC2"
		},
		{
			"bufferView":41,
			"componentType":5126,
			"count":564,
			"type":"VEC4"
		},
		{
			"bufferView":42,
			"componentType":5123,
			"count":984,
			"type":"SCALAR"
		},
		{
			"bufferView":43,
			"componentType":5126,
			"count":572,
			"max":[
				0.6060597896575928,
				7.043550491333008,
				2.9476921558380127
			],
			"min":[
				-0.5961652398109436,
				0.0272330641746521,
				-3.511892795562744
			],
			"type":"VEC3"
		},
		{
			"bufferView":44,
			"componentType":5126,
			"count":572,
			"type":"VEC3"
		},
		{
			"bufferView":45,
			"componentType":5126,
			"count":572,
			"type":"VEC2"
		},
		{
			"bufferView":46,
			"componentType":5126,
			"count":572,
			"type":"VEC4"
		},
		{
			"bufferView":47,
			"componentType":5123,
			"count":996,
			"type":"SCALAR"
		},
		{
			"bufferView":48,
			"componentType":5126,
			"count":480,
			"max":[
				0.21185067296028137,
				4.363592624664307,
				2.2100584506988525
			],
			"min":[
				-0.11937510222196579,
				-4.364716529846191,
				-2.1957688331604004
			],
			"type":"VEC3"
		},
		{
			"bufferView":49,
			"componentType":5126,
			"count":480,
			"type":"VEC3"
		},
		{
			"bufferView":50,
			"componentType":5126,
			"count":480,
			"type":"VEC2"
		},
		{
			"bufferView":51,
			"componentType":5126,
			"count":480,
			"type":"VEC4"
		},
		{
			"bufferView":52,
			"componentType":5123,
			"count":816,
			"type":"SCALAR"
		},
		{
			"bufferView":53,
			"componentType":5126,
			"count":20,
			"max":[
				10.35720157623291,
				9.051961898803711,
				10.35720157623291
			],
			"min":[
				-10.35720157623291,
				0.0004267692565917969,
				-10.35720157623291
			],
			"type":"VEC3"
		},
		{
			"bufferView":54,
			"componentType":5126,
			"count":20,
			"type":"VEC3"
		},
		{
			"bufferView":55,
			"componentType":5126,
			"count":20,
			"type":"VEC2"
		},
		{
			"bufferView":56,
			"componentType":5123,
			"count":36,
			"type":"SCALAR"
		},
		{
			"bufferView":57,
			"componentType":5126,
			"count":144,
			"max":[
				10.48582649230957,
				0,
				10.48582649230957
			],
			"min":[
				-10.48582649230957,
				0,
				-10.48582649230957
			],
			"type":"VEC3"
		},
		{
			"bufferView":58,
			"componentType":5126,
			"count":144,
			"type":"VEC3"
		},
		{
			"bufferView":59,
			"componentType":5126,
			"count":144,
			"type":"VEC2"
		},
		{
			"bufferView":60,
			"componentType":5126,
			"count":144,
			"type":"VEC4"
		},
		{
			"bufferView":61,
			"componentType":5123,
			"count":726,
			"type":"SCALAR"
		}
	],
	"bufferViews":[
		{
			"buffer":0,
			"byteLength":96,
			"byteOffset":0,
			"target":34962
		},
		{
			"buffer":0,
			"byteLength":96,
			"byteOffset":96,
			"target":34962
		},
		{
			"buffer":0,
			"byteLength":64,
			"byteOffset":192,
			"target":34962
		},
		{
			"buffer":0,
			"byteLength":128,
			"byteOffset":256,
			"target":34962
		},
		{
			"buffer":0,
			"byteLength":36,
			"byteOffset":384,
			"target":34963
		},
		{
			"buffer":0,
			"byteLength":96,
			"byteOffset":420,
			"target":34962
		},
		{
			"buffer":0,
			"byteLength":96,
			"byteOffset":516,
			"target":34962
		},
		{
			"buffer":0,
			"byteLength":64,
			"byteOffset":612,
			"target":34962
		},
		{
			"buffer":0,
			"byteLength":128,
			"byteOffset":676,
			"target":34962
		},
		{
			"buffer":0,
			"byteLength":36,
			"byteOffset":804,
			"target":34963
		},
		{
			"buffer":0,
			"byteLength":2232,
			"byteOffset":840,
			"target":34962
		},
		{
			"buffer":0,
			"byteLength":2232,
			"byteOffset":3072,
			"target":34962
		},
		{
			"buffer":0,
			"byteLength":1488,
			"byteOffset":5304,
			"target":34962
		},
		{
			"buffer":0,
			"byteLength":792,
			"byteOffset":6792,
			"target":34963
		},
		{
			"buffer":0,
			"byteLength":2232,
			"byteOffset":7584,
			"target":34962
		},
		{
			"buffer":0,
			"byteLength":2232,
			"byteOffset":9816,
			"target":34962
		},
		{
			"buffer":0,
			"byteLength":1488,
			"byteOffset":12048,
			"target":34962
		},
		{
			"buffer":0,
			"byteLength":792,
			"byteOffset":13536,
			"target":34963
		},
		{
			"buffer":0,
			"byteLength":2232,
			"byteOffset":14328,
			"target":34962
		},
		{
			"buffer":0,
			"byteLength":2232,
			"byteOffset":16560,
			"target":34962
		},
		{
			"buffer":0,
			"byteLength":1488,
			"byteOffset":18792,
			"target":34962
		},
		{
			"buffer":0,
			"byteLength":2232,
			"byteOffset":20280,
			"target":34962
		},
		{
			"buffer":0,
			"byteLength":2232,
			"byteOffset":22512,
			"target":34962
		},
		{
			"buffer":0,
			"byteLength":1488,
			"byteOffset":24744,
			"target":34962
		},
		{
			"buffer":0,
			"byteLength":672,
			"byteOffset":26232,
			"target":34962
		},
		{
			"buffer":0,
			"byteLength":672,
			"byteOffset":26904,
			"target":34962
		},
		{
			"buffer":0,
			"byteLength":448,
			"byteOffset":27576,
			"target":34962
		},
		{
			"buffer":0,
			"byteLength":896,
			"byteOffset":28024,
			"target":34962
		},
		{
			"buffer":0,
			"byteLength":168,
			"byteOffset":28920,
			"target":34963
		},
		{
			"buffer":0,
			"byteLength":672,
			"byteOffset":29088,
			"target":34962
		},
		{
			"buffer":0,
			"byteLength":672,
			"byteOffset":29760,
			"target":34962
		},
		{
			"buffer":0,
			"byteLength":448,
			"byteOffset":30432,
			"target":34962
		},
		{
			"buffer":0,
			"byteLength":896,
			"byteOffset":30880,
			"target":34962
		},
		{
			"buffer":0,
			"byteLength":4224,
			"byteOffset":31776,
			"target":34962
		},
		{
			"buffer":0,
			"byteLength":4224,
			"byteOffset":36000,
			"target":34962
		},
		{
			"buffer":0,
			"byteLength":2816,
			"byteOffset":40224,
			"target":34962
		},
		{
			"buffer":0,
			"byteLength":5632,
			"byteOffset":43040,
			"target":34962
		},
		{
			"buffer":0,
			"byteLength":1152,
			"byteOffset":48672,
			"target":34963
		},
		{
			"buffer":0,
			"byteLength":6768,
			"byteOffset":49824,
			"target":34962
		},
		{
			"buffer":0,
			"byteLength":6768,
			"byteOffset":56592,
			"target":34962
		},
		{
			"buffer":0,
			"byteLength":4512,
			"byteOffset":63360,
			"target":34962
		},
		{
			"buffer":0,
			"byteLength":9024,
			"byteOffset":67872,
			"target":34962
		},
		{
			"buffer":0,
			"byteLength":1968,
			"byteOffset":76896,
			"target":34963
		},
		{
			"buffer":0,
			"byteLength":6864,
			"byteOffset":78864,
			"target":34962
		},
		{
			"buffer":0,
			"byteLength":6864,
			"byteOffset":85728,
			"target":34962
		},
		{
			"buffer":0,
			"byteLength":4576,
			"byteOffset":92592,
			"target":34962
		},
		{
			"buffer":0,
			"byteLength":9152,
			"byteOffset":97168,
			"target":34962
		},
		{
			"buffer":0,
			"byteLength":1992,
			"byteOffset":106320,
			"target":34963
		},
		{
			"buffer":0,
			"byteLength":5760,
			"byteOffset":108312,
			"target":34962
		},
		{
			"buffer":0,
			"byteLength":5760,
			"byteOffset":114072,
			"target":34962
		},
		{
			"buffer":0,
			"byteLength":3840,
			"byteOffset":119832,
			"target":34962
		},
		{
			"buffer":0,
			"byteLength":7680,
			"byteOffset":123672,
			"target":34962
		},
		{
			"buffer":0,
			"byteLength":1632,
			"byteOffset":131352,
			"target":34963
		},
		{
			"buffer":0,
			"byteLength":240,
			"byteOffset":132984,
			"target":34962
		},
		{
			"buffer":0,
			"byteLength":240,
			"byteOffset":133224,
			"target":34962
		},
		{
			"buffer":0,
			"byteLength":160,
			"byteOffset":133464,
			"target":34962
		},
		{
			"buffer":0,
			"byteLength":72,
			"byteOffset":133624,
			"target":34963
		},
		{
			"buffer":0,
			"byteLength":1728,
			"byteOffset":133696,
			"target":34962
		},
		{
			"buffer":0,
			"byteLength":1728,
			"byteOffset":135424,
			"target":34962
		},
		{
			"buffer":0,
			"byteLength":1152,
			"byteOffset":137152,
			"target":34962
		},
		{
			"buffer":0,
			"byteLength":2304,
			"byteOffset":138304,
			"target":34962
		},
		{
			"buffer":0,
			"byteLength":1452,
			"byteOffset":140608,
			"target":34963
		}
	],
	"samplers":[
		{
			"magFilter":9729,
			"minFilter":9987
		}
	],
	"buffers":[
		{
			"byteLength":142060,
			"uri":"test01.bin"
		}
	]
}
