{
	"asset":{
		"generator":"Khronos glTF Blender I/O v4.2.70",
		"version":"2.0"
	},
	"scene":0,
	"scenes":[
		{
			"name":"Scene",
			"nodes":[
				0,
				1,
				2,
				3,
				4,
				5,
				6,
				7,
				8,
				9,
				10,
				11,
				12,
				13,
				14,
				15,
				16,
				17,
				18,
				19,
				20,
				21,
				22
			]
		}
	],
	"nodes":[
		{
			"name":"Scene Collection"
		},
		{
			"mesh":0,
			"name":"Ceiling",
			"translation":[
				0,
				2,
				0
			]
		},
		{
			"name":"Scene Collection"
		},
		{
			"name":"Scene Collection.001"
		},
		{
			"name":"Scene Collection.002"
		},
		{
			"name":"Scene Collection.003"
		},
		{
			"mesh":1,
			"name":"Floor"
		},
		{
			"mesh":2,
			"name":"Box.000",
			"rotation":[
				0,
				1,
				0,
				0
			],
			"scale":[
				-5.400752544403076,
				-1.0631349086761475,
				-0.3550279438495636
			],
			"translation":[
				-4.438307285308838,
				1.090323567390442,
				0
			]
		},
		{
			"mesh":2,
			"name":"Box.001",
			"scale":[
				2.8169822692871094,
				1,
				0.35950326919555664
			],
			"translation":[
				6.742801189422607,
				1,
				-0.18933016061782837
			]
		},
		{
			"mesh":2,
			"name":"Box.002",
			"scale":[
				0.5698657035827637,
				0.5698657035827637,
				0.5698657035827637
			],
			"translation":[
				-8.708850860595703,
				0.6217164993286133,
				3.6910226345062256
			]
		},
		{
			"mesh":2,
			"name":"Box.003",
			"translation":[
				-3.2060959339141846,
				3.0287489891052246,
				-3.8826940059661865
			]
		},
		{
			"mesh":2,
			"name":"Box.004",
			"rotation":[
				0,
				-0.9907969236373901,
				0,
				0.1353571116924286
			],
			"scale":[
				-1.000000238418579,
				-0.5323643684387207,
				-1.000000238418579
			],
			"translation":[
				1.7102844715118408,
				0.5423474311828613,
				-6.409844875335693
			]
		},
		{
			"mesh":2,
			"name":"Box.005",
			"rotation":[
				0,
				-0.2230888158082962,
				0,
				0.9747981429100037
			],
			"translation":[
				5.3589677810668945,
				1,
				-5.353048801422119
			]
		},
		{
			"mesh":3,
			"name":"Wall.000",
			"translation":[
				0,
				1,
				-11
			]
		},
		{
			"mesh":3,
			"name":"Wall.001",
			"rotation":[
				0,
				0.7071068286895752,
				0,
				0.7071067094802856
			],
			"translation":[
				-11,
				1,
				0
			]
		},
		{
			"mesh":3,
			"name":"Wall.002",
			"rotation":[
				0,
				-1,
				0,
				1.6292068494294654e-07
			],
			"translation":[
				0,
				1,
				11
			]
		},
		{
			"mesh":3,
			"name":"Wall.003",
			"rotation":[
				0,
				-0.7071065902709961,
				0,
				0.7071070671081543
			],
			"translation":[
				11,
				1,
				0
			]
		},
		{
			"camera":0,
			"name":"Camera",
			"translation":[
				-0.06577014923095703,
				1.4999991655349731,
				8.124510765075684
			]
		},
		{
			"mesh":4,
			"name":"Cone",
			"scale":[
				0.5343424677848816,
				0.5343424677848816,
				0.5343424677848816
			],
			"translation":[
				4.832544326782227,
				2.6421866416931152,
				1.1512436866760254
			]
		},
		{
			"mesh":5,
			"name":"Suzanne",
			"rotation":[
				-0.26451411843299866,
				0.4847438633441925,
				0.02492607571184635,
				0.8333272933959961
			],
			"scale":[
				0.4503675401210785,
				0.4503675699234009,
				0.45036765933036804
			],
			"translation":[
				-9.028874397277832,
				0.31072235107421875,
				-9.349345207214355
			]
		},
		{
			"mesh":6,
			"name":"Cube",
			"rotation":[
				0,
				0,
				-1,
				0
			],
			"scale":[
				-1.7276793718338013,
				-1.1413507461547852,
				-2.5002758502960205
			],
			"translation":[
				-3.317011833190918,
				1.1815464496612549,
				7.520874977111816
			]
		},
		{
			"mesh":7,
			"name":"Cube.001",
			"rotation":[
				0,
				0,
				-1,
				0
			],
			"scale":[
				-1.7829115390777588,
				-1.1413507461547852,
				-2.5002758502960205
			],
			"translation":[
				3.3501060009002686,
				1.1815464496612549,
				7.520874977111816
			]
		},
		{
			"mesh":8,
			"name":"Cube.002",
			"rotation":[
				0,
				1,
				0,
				0
			],
			"scale":[
				-1.5870435237884521,
				-1.1914527416229248,
				-0.3216426372528076
			],
			"translation":[
				0,
				1.0827772617340088,
				5.420156478881836
			]
		}
	],
	"cameras":[
		{
			"name":"Camera.004",
			"perspective":{
				"aspectRatio":1.7777777777777777,
				"yfov":1,
				"zfar":100,
				"znear":0.10000000149011612
			},
			"type":"perspective"
		}
	],
	"materials":[
		{
			"doubleSided":true,
			"name":"Floor.002",
			"pbrMetallicRoughness":{
				"baseColorTexture":{
					"index":0
				},
				"metallicFactor":0,
				"roughnessFactor":0.5
			}
		},
		{
			"doubleSided":true,
			"name":"Floor.004",
			"pbrMetallicRoughness":{
				"baseColorTexture":{
					"index":1
				},
				"metallicFactor":0,
				"roughnessFactor":0.5
			}
		},
		{
			"doubleSided":true,
			"name":"Box.003",
			"pbrMetallicRoughness":{
				"baseColorTexture":{
					"index":2
				},
				"metallicFactor":0,
				"roughnessFactor":0.5
			}
		},
		{
			"doubleSided":true,
			"name":"Wall.003",
			"pbrMetallicRoughness":{
				"baseColorTexture":{
					"index":3
				},
				"metallicFactor":0,
				"roughnessFactor":0.5
			}
		},
		{
			"doubleSided":true,
			"name":"Material.013",
			"pbrMetallicRoughness":{
				"baseColorTexture":{
					"index":4
				},
				"metallicFactor":0,
				"roughnessFactor":0.5
			}
		},
		{
			"doubleSided":true,
			"name":"Material.014",
			"pbrMetallicRoughness":{
				"baseColorTexture":{
					"index":5
				},
				"metallicFactor":0,
				"roughnessFactor":0.5
			}
		},
		{
			"doubleSided":true,
			"name":"Material.015",
			"pbrMetallicRoughness":{
				"baseColorTexture":{
					"index":6
				},
				"metallicFactor":0,
				"roughnessFactor":0.5
			}
		},
		{
			"doubleSided":true,
			"name":"Material.016",
			"pbrMetallicRoughness":{
				"baseColorTexture":{
					"index":7
				},
				"metallicFactor":0,
				"roughnessFactor":0.5
			}
		},
		{
			"doubleSided":true,
			"name":"Material.017",
			"pbrMetallicRoughness":{
				"baseColorTexture":{
					"index":8
				},
				"metallicFactor":0,
				"roughnessFactor":0.5
			}
		}
	],
	"meshes":[
		{
			"name":"Floor.002",
			"primitives":[
				{
					"attributes":{
						"POSITION":0,
						"NORMAL":1,
						"TEXCOORD_0":2,
						"TANGENT":3
					},
					"indices":4,
					"material":0
				}
			]
		},
		{
			"name":"Floor.004",
			"primitives":[
				{
					"attributes":{
						"POSITION":5,
						"NORMAL":6,
						"TEXCOORD_0":7,
						"TANGENT":8
					},
					"indices":4,
					"material":1
				}
			]
		},
		{
			"name":"Box.003",
			"primitives":[
				{
					"attributes":{
						"POSITION":9,
						"NORMAL":10,
						"TEXCOORD_0":11,
						"TANGENT":12
					},
					"indices":13,
					"material":2
				}
			]
		},
		{
			"name":"Wall.003",
			"primitives":[
				{
					"attributes":{
						"POSITION":14,
						"NORMAL":15,
						"TEXCOORD_0":16,
						"TANGENT":17
					},
					"indices":13,
					"material":3
				}
			]
		},
		{
			"name":"Cone.002",
			"primitives":[
				{
					"attributes":{
						"POSITION":18,
						"NORMAL":19,
						"TEXCOORD_0":20,
						"TANGENT":21
					},
					"indices":22,
					"material":4
				}
			]
		},
		{
			"name":"Suzanne.002",
			"primitives":[
				{
					"attributes":{
						"POSITION":23,
						"NORMAL":24,
						"TEXCOORD_0":25,
						"TANGENT":26
					},
					"indices":27,
					"material":5
				}
			]
		},
		{
			"name":"Cube.010",
			"primitives":[
				{
					"attributes":{
						"POSITION":28,
						"NORMAL":29,
						"TEXCOORD_0":30,
						"TANGENT":31
					},
					"indices":32,
					"material":6
				}
			]
		},
		{
			"name":"Cube.011",
			"primitives":[
				{
					"attributes":{
						"POSITION":33,
						"NORMAL":34,
						"TEXCOORD_0":35,
						"TANGENT":36
					},
					"indices":32,
					"material":7
				}
			]
		},
		{
			"name":"Cube.012",
			"primitives":[
				{
					"attributes":{
						"POSITION":37,
						"NORMAL":38,
						"TEXCOORD_0":39,
						"TANGENT":40
					},
					"indices":32,
					"material":8
				}
			]
		}
	],
	"textures":[
		{
			"sampler":0,
			"source":0
		},
		{
			"sampler":0,
			"source":0
		},
		{
			"sampler":0,
			"source":1
		},
		{
			"sampler":0,
			"source":2
		},
		{
			"sampler":0,
			"source":3
		},
		{
			"sampler":0,
			"source":3
		},
		{
			"sampler":0,
			"source":2
		},
		{
			"sampler":0,
			"source":2
		},
		{
			"sampler":0,
			"source":4
		}
	],
	"images":[
		{
			"mimeType":"image/jpeg",
			"name":"spaceFloor",
			"uri":"spaceFloor.jpg"
		},
		{
			"mimeType":"image/png",
			"name":"Box",
			"uri":"Box.png"
		},
		{
			"mimeType":"image/jpeg",
			"name":"spaceWall",
			"uri":"spaceWall.jpg"
		},
		{
			"mimeType":"image/png",
			"name":"animalFur",
			"uri":"animalFur.png"
		},
		{
			"mimeType":"image/jpeg",
			"name":"lift",
			"uri":"lift.jpg"
		}
	],
	"accessors":[
		{
			"bufferView":0,
			"componentType":5126,
			"count":4,
			"max":[
				10,
				0,
				10
			],
			"min":[
				-10,
				0,
				-10
			],
			"type":"VEC3"
		},
		{
			"bufferView":1,
			"componentType":5126,
			"count":4,
			"type":"VEC3"
		},
		{
			"bufferView":2,
			"componentType":5126,
			"count":4,
			"type":"VEC2"
		},
		{
			"bufferView":3,
			"componentType":5126,
			"count":4,
			"type":"VEC4"
		},
		{
			"bufferView":4,
			"componentType":5123,
			"count":6,
			"type":"SCALAR"
		},
		{
			"bufferView":5,
			"componentType":5126,
			"count":4,
			"max":[
				10,
				0,
				10
			],
			"min":[
				-10,
				0,
				-10
			],
			"type":"VEC3"
		},
		{
			"bufferView":6,
			"componentType":5126,
			"count":4,
			"type":"VEC3"
		},
		{
			"bufferView":7,
			"componentType":5126,
			"count":4,
			"type":"VEC2"
		},
		{
			"bufferView":8,
			"componentType":5126,
			"count":4,
			"type":"VEC4"
		},
		{
			"bufferView":9,
			"componentType":5126,
			"count":24,
			"max":[
				1,
				1,
				1
			],
			"min":[
				-1,
				-1,
				-1
			],
			"type":"VEC3"
		},
		{
			"bufferView":10,
			"componentType":5126,
			"count":24,
			"type":"VEC3"
		},
		{
			"bufferView":11,
			"componentType":5126,
			"count":24,
			"type":"VEC2"
		},
		{
			"bufferView":12,
			"componentType":5126,
			"count":24,
			"type":"VEC4"
		},
		{
			"bufferView":13,
			"componentType":5123,
			"count":36,
			"type":"SCALAR"
		},
		{
			"bufferView":14,
			"componentType":5126,
			"count":24,
			"max":[
				10.000003814697266,
				1,
				1
			],
			"min":[
				-9.999996185302734,
				-1,
				-1
			],
			"type":"VEC3"
		},
		{
			"bufferView":15,
			"componentType":5126,
			"count":24,
			"type":"VEC3"
		},
		{
			"bufferView":16,
			"componentType":5126,
			"count":24,
			"type":"VEC2"
		},
		{
			"bufferView":17,
			"componentType":5126,
			"count":24,
			"type":"VEC4"
		},
		{
			"bufferView":18,
			"componentType":5126,
			"count":128,
			"max":[
				1,
				1,
				1
			],
			"min":[
				-1,
				-1,
				-1
			],
			"type":"VEC3"
		},
		{
			"bufferView":19,
			"componentType":5126,
			"count":128,
			"type":"VEC3"
		},
		{
			"bufferView":20,
			"componentType":5126,
			"count":128,
			"type":"VEC2"
		},
		{
			"bufferView":21,
			"componentType":5126,
			"count":128,
			"type":"VEC4"
		},
		{
			"bufferView":22,
			"componentType":5123,
			"count":186,
			"type":"SCALAR"
		},
		{
			"bufferView":23,
			"componentType":5126,
			"count":1978,
			"max":[
				1.3671875,
				0.984375,
				0.8515625
			],
			"min":[
				-1.3671875,
				-0.984375,
				-0.8515625
			],
			"type":"VEC3"
		},
		{
			"bufferView":24,
			"componentType":5126,
			"count":1978,
			"type":"VEC3"
		},
		{
			"bufferView":25,
			"componentType":5126,
			"count":1978,
			"type":"VEC2"
		},
		{
			"bufferView":26,
			"componentType":5126,
			"count":1978,
			"type":"VEC4"
		},
		{
			"bufferView":27,
			"componentType":5123,
			"count":2904,
			"type":"SCALAR"
		},
		{
			"bufferView":28,
			"componentType":5126,
			"count":24,
			"max":[
				1,
				1,
				1
			],
			"min":[
				-1,
				-1,
				-1
			],
			"type":"VEC3"
		},
		{
			"bufferView":29,
			"componentType":5126,
			"count":24,
			"type":"VEC3"
		},
		{
			"bufferView":30,
			"componentType":5126,
			"count":24,
			"type":"VEC2"
		},
		{
			"bufferView":31,
			"componentType":5126,
			"count":24,
			"type":"VEC4"
		},
		{
			"bufferView":32,
			"componentType":5123,
			"count":36,
			"type":"SCALAR"
		},
		{
			"bufferView":33,
			"componentType":5126,
			"count":24,
			"max":[
				1,
				1,
				1
			],
			"min":[
				-1,
				-1,
				-1
			],
			"type":"VEC3"
		},
		{
			"bufferView":34,
			"componentType":5126,
			"count":24,
			"type":"VEC3"
		},
		{
			"bufferView":35,
			"componentType":5126,
			"count":24,
			"type":"VEC2"
		},
		{
			"bufferView":36,
			"componentType":5126,
			"count":24,
			"type":"VEC4"
		},
		{
			"bufferView":37,
			"componentType":5126,
			"count":24,
			"max":[
				1,
				1,
				1
			],
			"min":[
				-1,
				-1,
				-1
			],
			"type":"VEC3"
		},
		{
			"bufferView":38,
			"componentType":5126,
			"count":24,
			"type":"VEC3"
		},
		{
			"bufferView":39,
			"componentType":5126,
			"count":24,
			"type":"VEC2"
		},
		{
			"bufferView":40,
			"componentType":5126,
			"count":24,
			"type":"VEC4"
		}
	],
	"bufferViews":[
		{
			"buffer":0,
			"byteLength":48,
			"byteOffset":0,
			"target":34962
		},
		{
			"buffer":0,
			"byteLength":48,
			"byteOffset":48,
			"target":34962
		},
		{
			"buffer":0,
			"byteLength":32,
			"byteOffset":96,
			"target":34962
		},
		{
			"buffer":0,
			"byteLength":64,
			"byteOffset":128,
			"target":34962
		},
		{
			"buffer":0,
			"byteLength":12,
			"byteOffset":192,
			"target":34963
		},
		{
			"buffer":0,
			"byteLength":48,
			"byteOffset":204,
			"target":34962
		},
		{
			"buffer":0,
			"byteLength":48,
			"byteOffset":252,
			"target":34962
		},
		{
			"buffer":0,
			"byteLength":32,
			"byteOffset":300,
			"target":34962
		},
		{
			"buffer":0,
			"byteLength":64,
			"byteOffset":332,
			"target":34962
		},
		{
			"buffer":0,
			"byteLength":288,
			"byteOffset":396,
			"target":34962
		},
		{
			"buffer":0,
			"byteLength":288,
			"byteOffset":684,
			"target":34962
		},
		{
			"buffer":0,
			"byteLength":192,
			"byteOffset":972,
			"target":34962
		},
		{
			"buffer":0,
			"byteLength":384,
			"byteOffset":1164,
			"target":34962
		},
		{
			"buffer":0,
			"byteLength":72,
			"byteOffset":1548,
			"target":34963
		},
		{
			"buffer":0,
			"byteLength":288,
			"byteOffset":1620,
			"target":34962
		},
		{
			"buffer":0,
			"byteLength":288,
			"byteOffset":1908,
			"target":34962
		},
		{
			"buffer":0,
			"byteLength":192,
			"byteOffset":2196,
			"target":34962
		},
		{
			"buffer":0,
			"byteLength":384,
			"byteOffset":2388,
			"target":34962
		},
		{
			"buffer":0,
			"byteLength":1536,
			"byteOffset":2772,
			"target":34962
		},
		{
			"buffer":0,
			"byteLength":1536,
			"byteOffset":4308,
			"target":34962
		},
		{
			"buffer":0,
			"byteLength":1024,
			"byteOffset":5844,
			"target":34962
		},
		{
			"buffer":0,
			"byteLength":2048,
			"byteOffset":6868,
			"target":34962
		},
		{
			"buffer":0,
			"byteLength":372,
			"byteOffset":8916,
			"target":34963
		},
		{
			"buffer":0,
			"byteLength":23736,
			"byteOffset":9288,
			"target":34962
		},
		{
			"buffer":0,
			"byteLength":23736,
			"byteOffset":33024,
			"target":34962
		},
		{
			"buffer":0,
			"byteLength":15824,
			"byteOffset":56760,
			"target":34962
		},
		{
			"buffer":0,
			"byteLength":31648,
			"byteOffset":72584,
			"target":34962
		},
		{
			"buffer":0,
			"byteLength":5808,
			"byteOffset":104232,
			"target":34963
		},
		{
			"buffer":0,
			"byteLength":288,
			"byteOffset":110040,
			"target":34962
		},
		{
			"buffer":0,
			"byteLength":288,
			"byteOffset":110328,
			"target":34962
		},
		{
			"buffer":0,
			"byteLength":192,
			"byteOffset":110616,
			"target":34962
		},
		{
			"buffer":0,
			"byteLength":384,
			"byteOffset":110808,
			"target":34962
		},
		{
			"buffer":0,
			"byteLength":72,
			"byteOffset":111192,
			"target":34963
		},
		{
			"buffer":0,
			"byteLength":288,
			"byteOffset":111264,
			"target":34962
		},
		{
			"buffer":0,
			"byteLength":288,
			"byteOffset":111552,
			"target":34962
		},
		{
			"buffer":0,
			"byteLength":192,
			"byteOffset":111840,
			"target":34962
		},
		{
			"buffer":0,
			"byteLength":384,
			"byteOffset":112032,
			"target":34962
		},
		{
			"buffer":0,
			"byteLength":288,
			"byteOffset":112416,
			"target":34962
		},
		{
			"buffer":0,
			"byteLength":288,
			"byteOffset":112704,
			"target":34962
		},
		{
			"buffer":0,
			"byteLength":192,
			"byteOffset":112992,
			"target":34962
		},
		{
			"buffer":0,
			"byteLength":384,
			"byteOffset":113184,
			"target":34962
		}
	],
	"samplers":[
		{
			"magFilter":9728,
			"minFilter":9984
		}
	],
	"buffers":[
		{
			"byteLength":113568,
			"uri":"untitled3.bin"
		}
	]
}
